<svg xmlns="http://www.w3.org/2000/svg" width="900" height="600" viewBox="0 0 900 600" preserveAspectRatio="xMidYMid slice">
  <defs><linearGradient id="bg" x1="0" y1="0" x2="0.35" y2="1">
    <stop offset="0%" stop-color="#FFF0F7"/><stop offset="100%" stop-color="#FBD5E8"/>
  </linearGradient></defs>
  <rect width="900" height="600" fill="url(#bg)"/>
  
    <g transform="translate(600 306)">
      <circle r="192" fill="#DB2777" opacity=".07"/>
      <polygon points="0,-152 176,-64 -176,-64" fill="#BE185D" opacity=".92"/>
      <rect x="-148" y="-46" width="32" height="132" rx="4" fill="#BE185D" opacity=".82"/><rect x="-82" y="-46" width="32" height="132" rx="4" fill="#BE185D" opacity=".82"/><rect x="-16" y="-46" width="32" height="132" rx="4" fill="#BE185D" opacity=".82"/><rect x="50" y="-46" width="32" height="132" rx="4" fill="#BE185D" opacity=".82"/><rect x="116" y="-46" width="32" height="132" rx="4" fill="#BE185D" opacity=".82"/>
      <rect x="-192" y="96" width="384" height="20" rx="9" fill="#D4AF37"/>
      <g transform="translate(146 -132)">
        <circle r="44" fill="#fff" stroke="#BE185D" stroke-width="8"/>
        <path d="M-19 2 l14 15 l25 -32" fill="none" stroke="#4ADE80" stroke-width="10" stroke-linecap="round" stroke-linejoin="round"/>
      </g>
    </g>
  <g>
    <g opacity="0.9"><line x1="200.3" y1="471.3" x2="207.2" y2="473.5" stroke="#EC4899" stroke-width="2.61" stroke-linecap="round"/><line x1="197.0" y1="474.4" x2="198.6" y2="481.4" stroke="#EC4899" stroke-width="2.61" stroke-linecap="round"/><line x1="192.7" y1="473.1" x2="187.4" y2="478.0" stroke="#EC4899" stroke-width="2.61" stroke-linecap="round"/><line x1="191.7" y1="468.7" x2="184.8" y2="466.5" stroke="#EC4899" stroke-width="2.61" stroke-linecap="round"/><line x1="195.0" y1="465.6" x2="193.4" y2="458.6" stroke="#EC4899" stroke-width="2.61" stroke-linecap="round"/><line x1="199.3" y1="466.9" x2="204.6" y2="462.0" stroke="#EC4899" stroke-width="2.61" stroke-linecap="round"/></g>
    <g opacity="0.9"><circle cx="250" cy="120" r="2.884" fill="#A78BFA"/><circle cx="262.36" cy="125.15" r="2.472" fill="#A78BFA"/><circle cx="273.69" cy="116.91" r="2.884" fill="#A78BFA"/></g>
    <path d="M352 201.24 l 3.4800000000000004 8.120000000000001 l 9.280000000000001 1.1600000000000001 l -6.960000000000001 5.800000000000001 l 2.3200000000000003 9.280000000000001 l -8.120000000000001 -4.640000000000001 l -8.120000000000001 4.640000000000001 l 2.3200000000000003 -9.280000000000001 l -6.960000000000001 -5.800000000000001 l 9.280000000000001 -1.1600000000000001 z" fill="#FACC15" opacity="0.9"/>
    <path d="M424 470 l 10.32 -11.61 l 10.32 11.61 l 10.32 -11.61" fill="none" stroke="#22D3EE" stroke-width="4.128" stroke-linecap="round" stroke-linejoin="round" opacity="0.9"/>
    <path d="M742 120 q 6.3 -8.1 12.6 0 t 12.6 0" fill="none" stroke="#EC4899" stroke-width="3.06" stroke-linecap="round" opacity="0.9"/>
    <ellipse cx="812" cy="236" rx="13.39" ry="9.27" fill="none" stroke="#A78BFA" stroke-width="3.09" transform="rotate(-22 812 236)" opacity="0.9"/>
    <path d="M846 430 q 20.880000000000003 -23.200000000000003 44.080000000000005 -6.960000000000001" fill="none" stroke="#FACC15" stroke-width="3.9440000000000004" stroke-linecap="round" opacity="0.9"/>
    <g opacity="0.9"><line x1="620.2" y1="97.9" x2="630.0" y2="101.0" stroke="#22D3EE" stroke-width="3.741" stroke-linecap="round"/><line x1="615.4" y1="102.3" x2="617.7" y2="112.4" stroke="#22D3EE" stroke-width="3.741" stroke-linecap="round"/><line x1="609.3" y1="100.4" x2="601.7" y2="107.4" stroke="#22D3EE" stroke-width="3.741" stroke-linecap="round"/><line x1="607.8" y1="94.1" x2="598.0" y2="91.0" stroke="#22D3EE" stroke-width="3.741" stroke-linecap="round"/><line x1="612.6" y1="89.7" x2="610.3" y2="79.6" stroke="#22D3EE" stroke-width="3.741" stroke-linecap="round"/><line x1="618.7" y1="91.6" x2="626.3" y2="84.6" stroke="#22D3EE" stroke-width="3.741" stroke-linecap="round"/></g>
    <g opacity="0.9"><circle cx="700" cy="500" r="2.52" fill="#EC4899"/><circle cx="710.8" cy="504.5" r="2.16" fill="#EC4899"/><circle cx="720.7" cy="497.3" r="2.52" fill="#EC4899"/></g>
    <path d="M286 344.67 l 3.09 7.21 l 8.24 1.03 l -6.18 5.15 l 2.06 8.24 l -7.21 -4.12 l -7.21 4.12 l 2.06 -8.24 l -6.18 -5.15 l 8.24 -1.03 z" fill="#A78BFA" opacity="0.9"/>
  </g>
  <rect x="0" y="0" width="18" height="600" fill="#D4AF37"/>
</svg>